<?xml version="1.0" encoding="UTF-8" standalone="no"?>
<!DOCTYPE svg PUBLIC "-//W3C//DTD SVG 1.1//EN" "http://www.w3.org/Graphics/SVG/1.1/DTD/svg11.dtd">
<svg xmlns="http://www.w3.org/2000/svg" version="1.1" viewBox="0.00 0.00 500.00 500.00">
<path fill="#faf1f5" d="
  M 321.92 385.92
  C 324.89 388.79 327.78 389.81 331.31 391.53
  Q 332.07 391.90 331.24 392.07
  C 325.56 393.18 319.68 390.91 314.78 388.08
  Q 314.53 387.93 314.28 388.04
  Q 314.23 388.06 314.19 388.10
  Q 314.06 388.27 314.20 388.43
  Q 317.94 392.57 318.27 397.91
  Q 318.46 401.04 317.44 398.08
  C 314.64 389.91 307.37 387.47 300.24 383.95
  Q 299.17 383.42 299.77 384.45
  Q 302.96 389.92 302.07 397.54
  A 0.24 0.24 0.0 0 1 301.67 397.69
  Q 301.14 397.23 301.05 396.55
  C 300.06 389.41 294.54 384.97 288.14 382.29
  Q 287.34 381.95 287.78 382.69
  Q 291.54 389.03 289.97 397.33
  Q 289.55 399.56 289.29 397.30
  C 288.68 392.11 287.12 387.92 283.44 384.13
  Q 280.02 380.62 277.47 376.92
  Q 276.97 376.20 276.87 377.07
  Q 276.11 383.24 278.15 388.71
  C 279.35 391.90 281.07 395.33 280.49 398.81
  Q 280.34 399.66 280.01 398.87
  Q 277.91 393.92 274.20 389.47
  C 271.62 386.38 272.61 381.40 272.43 377.79
  Q 272.19 372.91 269.25 367.11
  Q 269.09 366.80 268.77 366.94
  L 268.46 367.07
  Q 268.30 367.14 268.36 367.31
  Q 270.66 373.47 270.75 379.63
  C 270.84 385.91 270.22 392.16 267.82 398.00
  Q 266.67 400.79 266.86 397.78
  C 267.48 387.72 266.63 378.54 262.00 369.47
  Q 261.21 367.93 261.42 369.65
  C 261.80 372.76 262.01 375.59 261.06 378.66
  Q 259.64 383.26 258.67 387.79
  C 257.63 392.70 258.62 397.66 259.60 402.65
  Q 260.03 404.82 258.99 402.87
  C 256.09 397.42 254.90 390.99 255.61 384.75
  Q 256.01 381.25 256.36 377.85
  Q 257.82 363.78 253.25 350.71
  Q 252.98 349.95 252.66 350.69
  Q 252.51 351.02 252.52 351.39
  Q 253.37 368.76 250.89 381.78
  C 249.75 387.75 245.62 392.69 241.61 397.05
  Q 240.75 397.98 241.00 396.74
  Q 241.49 394.36 242.84 392.17
  C 245.29 388.17 247.47 383.31 246.54 378.72
  Q 246.26 377.32 245.77 378.66
  C 244.51 382.18 242.53 385.35 240.21 388.33
  Q 237.10 392.33 237.22 399.12
  Q 237.29 403.10 236.27 399.25
  C 235.28 395.56 235.71 391.34 236.97 387.70
  C 239.28 381.03 240.44 374.20 240.24 367.07
  Q 240.23 366.55 239.71 366.47
  Q 239.18 366.39 239.05 366.90
  C 236.98 375.27 234.41 383.24 229.00 389.24
  Q 224.31 394.45 220.25 401.00
  Q 219.38 402.41 219.73 400.79
  C 220.65 396.58 221.83 392.48 224.36 388.87
  Q 225.00 387.95 223.99 388.42
  Q 213.65 393.20 209.55 400.39
  Q 208.52 402.20 208.76 400.13
  C 209.57 393.20 215.28 387.95 219.90 382.98
  Q 222.32 380.38 223.00 376.94
  Q 223.44 374.74 222.18 376.60
  Q 216.85 384.54 207.26 388.51
  Q 199.55 391.70 185.34 395.16
  C 182.06 395.96 178.50 397.49 175.63 399.30
  Q 173.68 400.53 175.02 398.65
  Q 179.09 392.98 185.67 390.39
  Q 192.07 387.87 199.25 386.27
  Q 204.22 385.16 199.17 384.51
  Q 194.87 383.95 190.01 384.10
  C 186.99 384.19 185.02 385.26 182.23 387.11
  Q 172.79 393.35 160.76 393.49
  Q 150.84 393.61 140.78 393.86
  Q 140.67 393.86 140.66 393.75
  L 140.63 393.48
  Q 140.62 393.42 140.68 393.41
  Q 148.41 391.76 155.88 390.11
  Q 163.81 388.36 172.00 384.61
  C 177.81 381.94 182.75 376.27 189.38 375.81
  C 200.19 375.05 210.97 372.91 216.91 363.43
  Q 221.00 356.91 219.76 348.97
  C 217.47 334.32 203.75 326.38 190.14 324.95
  C 178.69 323.74 174.88 331.08 169.75 339.35
  C 163.69 349.12 152.56 352.23 142.33 346.66
  Q 137.53 344.04 133.62 339.74
  Q 132.26 338.24 134.05 339.19
  C 137.01 340.74 140.26 343.06 143.20 343.90
  C 152.97 346.70 161.58 341.42 165.73 332.76
  C 167.77 328.53 167.07 323.34 162.18 321.51
  Q 157.85 319.89 152.27 318.28
  C 145.03 316.20 138.93 316.61 133.35 322.12
  C 125.53 329.85 119.01 337.50 106.77 333.96
  Q 106.41 333.86 106.11 333.65
  Q 105.21 333.05 106.29 333.11
  C 118.36 333.70 125.10 326.30 130.34 316.23
  Q 137.47 302.56 151.12 309.21
  C 153.05 310.15 167.36 317.80 165.64 310.05
  Q 164.90 306.74 164.53 303.21
  Q 164.18 299.89 165.53 302.95
  Q 165.88 303.73 166.19 304.53
  C 168.17 309.60 173.46 311.61 178.38 312.62
  Q 187.76 314.55 199.38 317.99
  C 203.19 319.12 207.06 316.07 205.45 312.01
  C 204.48 309.60 202.30 307.10 200.32 305.33
  Q 193.54 299.29 184.72 293.95
  Q 178.84 290.38 173.67 289.77
  C 163.16 288.52 154.99 295.93 144.93 297.59
  Q 139.76 298.44 134.53 297.19
  Q 131.25 296.41 127.74 296.12
  Q 120.20 295.49 113.91 300.66
  C 106.38 306.85 97.30 311.72 88.12 305.30
  Q 87.19 304.65 88.32 304.78
  Q 89.77 304.96 91.30 305.19
  C 95.84 305.89 100.06 304.81 103.73 301.90
  C 108.89 297.81 115.68 291.17 122.22 290.58
  C 126.16 290.22 130.06 291.26 133.97 291.66
  C 139.22 292.19 146.32 291.70 146.85 284.92
  C 147.65 274.69 128.59 281.72 124.22 283.52
  C 118.66 285.81 111.23 286.88 106.17 283.01
  C 101.72 279.60 99.98 274.44 98.12 269.35
  C 96.97 266.22 94.09 261.58 91.62 260.05
  Q 88.59 258.19 85.72 256.31
  Q 84.52 255.53 85.95 255.43
  Q 95.90 254.78 100.88 263.76
  C 104.77 270.79 106.79 279.01 116.32 279.52
  Q 120.14 279.73 124.50 277.71
  C 133.11 273.73 141.41 268.74 150.80 274.27
  C 157.36 278.13 163.84 282.33 171.63 279.47
  C 173.05 278.95 173.93 277.58 173.79 276.07
  C 172.87 265.94 165.69 260.57 155.96 261.77
  Q 150.79 262.41 145.07 263.77
  Q 135.78 265.98 129.45 259.75
  C 126.79 257.13 124.48 253.99 120.69 252.86
  C 113.06 250.59 106.45 247.85 105.09 239.17
  Q 104.29 234.09 108.23 229.84
  Q 108.53 229.52 108.93 229.58
  Q 109.07 229.59 109.19 229.67
  Q 109.35 229.78 109.26 229.95
  C 104.95 237.77 111.09 244.67 118.23 247.10
  C 122.00 248.38 125.66 249.62 129.08 251.64
  C 131.63 253.15 134.38 255.30 137.21 255.98
  Q 143.15 257.40 149.36 255.14
  C 152.36 254.04 155.81 252.55 158.94 252.41
  C 168.50 251.96 174.63 256.84 178.56 265.12
  C 182.57 273.56 188.37 281.35 196.54 285.59
  C 202.49 288.68 208.93 288.56 208.96 279.94
  Q 208.99 268.25 202.62 259.32
  C 193.48 246.50 179.19 241.14 163.80 242.29
  C 158.15 242.71 152.54 243.94 146.87 242.73
  C 138.97 241.05 134.81 235.35 132.94 227.97
  Q 131.74 223.20 130.30 221.29
  C 125.78 215.29 119.10 215.75 112.52 217.23
  Q 99.90 220.06 93.67 209.54
  Q 92.77 208.03 94.20 209.04
  Q 95.53 209.98 96.75 210.83
  C 100.73 213.61 105.90 214.07 110.57 212.73
  C 119.20 210.25 127.78 207.94 133.42 216.88
  Q 135.38 219.99 136.44 223.14
  C 138.61 229.58 142.03 235.59 149.20 236.94
  Q 153.26 237.71 156.88 237.41
  C 160.30 237.12 163.87 234.71 162.90 230.76
  Q 161.93 226.79 158.92 223.96
  A 0.51 0.51 0.0 0 1 159.05 223.13
  Q 159.50 222.92 160.00 223.03
  Q 160.96 223.26 161.55 223.77
  Q 168.72 230.04 177.46 232.67
  C 183.34 234.43 189.44 235.70 194.87 238.37
  C 208.19 244.93 220.13 258.10 222.44 272.92
  Q 223.51 279.75 223.78 288.15
  C 224.13 298.78 226.37 311.46 235.58 317.68
  C 240.06 320.71 245.47 318.69 245.93 313.09
  Q 246.21 309.67 245.99 306.62
  Q 244.49 285.29 235.46 264.29
  Q 227.15 244.99 208.71 235.97
  C 197.83 230.66 185.89 226.05 177.19 218.24
  C 170.24 211.99 163.05 206.60 153.68 205.07
  C 147.99 204.13 141.76 203.40 136.58 200.76
  C 132.27 198.56 129.39 193.57 127.02 189.49
  Q 124.57 185.27 120.08 182.94
  Q 110.73 178.08 102.28 184.13
  Q 101.62 184.60 101.91 183.85
  Q 102.14 183.23 102.56 182.74
  C 107.45 176.90 115.81 174.86 122.85 177.72
  Q 128.82 180.14 132.07 183.76
  C 136.45 188.62 140.17 193.85 146.29 196.67
  C 150.44 198.58 154.89 200.27 159.31 200.81
  C 162.56 201.20 164.61 198.57 164.26 195.48
  Q 163.85 191.81 162.35 188.11
  Q 161.10 184.99 163.27 187.55
  C 165.38 190.02 166.88 194.85 167.86 197.97
  Q 170.19 205.41 177.89 206.68
  C 187.87 208.33 184.72 193.70 182.22 189.00
  C 178.07 181.17 171.31 180.96 163.60 179.06
  C 151.03 175.98 143.02 164.35 144.39 151.64
  Q 145.37 142.47 154.02 134.71
  Q 154.19 134.55 154.42 134.56
  Q 154.58 134.56 154.71 134.69
  A 0.18 0.17 41.1 0 1 154.73 134.92
  C 151.31 139.55 148.55 145.54 148.60 151.30
  C 148.69 160.98 154.18 169.36 164.03 171.43
  C 169.85 172.65 175.71 172.84 181.12 175.32
  Q 190.45 179.59 192.27 190.81
  C 193.09 195.85 193.39 201.18 195.17 205.84
  C 200.41 219.60 214.25 225.01 228.44 227.88
  C 232.76 228.75 237.87 227.74 237.60 222.15
  C 237.28 215.22 231.42 209.53 225.57 206.32
  C 221.23 203.95 215.83 201.59 212.58 197.97
  Q 208.96 193.95 207.22 188.92
  Q 203.80 179.01 198.36 172.05
  Q 195.75 168.70 192.78 165.35
  Q 185.12 156.72 182.17 146.68
  C 180.98 142.64 179.05 139.20 175.59 136.67
  C 169.45 132.17 165.57 127.09 165.90 119.02
  Q 166.10 113.92 169.30 110.02
  Q 169.48 109.79 169.74 109.65
  Q 170.11 109.44 170.26 109.63
  Q 170.47 109.89 170.33 110.20
  Q 166.31 118.82 172.07 127.41
  Q 174.24 130.65 179.04 134.11
  C 181.50 135.88 184.98 137.63 187.04 134.16
  C 188.72 131.33 190.90 127.80 193.95 126.48
  Q 195.00 126.02 194.28 126.91
  C 187.63 135.03 189.30 144.97 193.68 153.61
  Q 198.01 162.14 203.28 171.39
  C 204.46 173.46 207.16 178.78 209.42 179.26
  A 1.88 1.88 0.0 0 0 211.69 177.45
  Q 211.83 170.30 211.67 163.09
  Q 211.59 159.61 210.62 156.59
  C 209.02 151.59 204.69 148.21 203.06 143.34
  Q 199.95 134.08 207.47 126.48
  C 209.87 124.05 212.84 122.15 214.74 119.24
  Q 218.70 113.18 214.52 106.32
  Q 212.66 103.26 208.81 100.57
  Q 208.71 100.51 208.77 100.41
  L 208.93 100.16
  A 0.36 0.36 0.0 0 1 209.38 100.01
  Q 216.70 103.03 219.53 110.17
  C 222.46 117.56 217.56 123.04 212.22 127.56
  C 206.84 132.10 206.34 138.95 209.98 144.92
  Q 212.00 148.23 214.09 151.36
  C 219.44 159.37 216.15 170.37 217.09 179.65
  C 217.85 187.13 223.03 191.75 230.55 192.97
  Q 235.39 193.75 239.32 194.91
  C 250.95 198.36 255.20 210.01 255.32 221.34
  Q 255.45 232.62 255.24 243.29
  C 255.17 246.86 257.41 251.79 261.86 249.23
  Q 264.03 247.97 265.60 245.48
  C 275.61 229.61 277.51 210.03 264.60 195.81
  C 257.17 187.62 247.97 181.38 238.09 175.12
  C 234.22 172.66 229.84 168.60 227.43 164.65
  Q 220.06 152.59 225.63 138.86
  Q 229.20 130.06 238.81 126.01
  Q 244.69 123.54 249.20 120.74
  C 256.96 115.92 256.52 108.31 253.38 100.85
  Q 250.37 93.68 246.93 85.75
  A 0.14 0.13 80.5 0 1 247.06 85.56
  L 247.35 85.58
  Q 247.91 85.61 248.19 86.09
  Q 253.54 95.06 257.23 103.26
  C 259.30 107.85 263.31 112.74 268.79 108.45
  C 276.30 102.57 279.01 91.79 271.80 84.77
  Q 270.49 83.49 272.19 84.17
  C 277.31 86.21 279.77 93.05 279.49 98.01
  Q 279.05 105.95 273.29 111.48
  Q 266.90 117.61 260.36 123.60
  C 254.13 129.31 246.20 130.85 239.02 134.78
  C 232.99 138.08 229.74 143.96 229.54 150.90
  Q 229.45 153.78 231.21 155.87
  A 2.29 2.28 -35.1 0 0 234.10 156.37
  C 235.65 155.47 236.70 152.89 237.56 151.35
  Q 239.07 148.62 238.34 151.66
  C 237.28 156.10 238.13 160.60 242.25 163.21
  C 249.89 168.05 260.76 168.22 269.41 166.22
  C 275.61 164.78 281.48 161.05 279.21 153.56
  C 277.92 149.28 275.60 145.50 274.58 141.25
  C 272.32 131.86 277.50 122.86 286.69 119.68
  C 294.41 117.02 304.95 113.52 305.95 103.74
  Q 306.77 95.79 301.46 91.06
  C 300.04 89.80 298.65 89.19 297.13 88.21
  Q 293.86 86.11 297.59 87.20
  C 316.99 92.84 314.51 115.75 298.84 123.50
  C 295.48 125.16 291.84 126.08 288.75 128.36
  Q 281.53 133.69 282.86 142.32
  C 283.62 147.24 286.53 152.26 288.22 157.14
  C 290.29 163.13 286.78 167.92 281.50 170.05
  Q 276.04 172.26 270.58 174.94
  C 266.76 176.81 265.54 182.02 268.80 185.13
  Q 271.30 187.51 274.09 188.79
  Q 280.16 191.59 286.63 194.60
  C 291.76 196.99 298.35 197.81 302.19 192.69
  C 308.93 183.73 300.82 174.61 299.16 165.82
  C 297.53 157.09 303.95 152.07 310.80 147.97
  Q 314.51 145.76 316.03 143.30
  C 319.26 138.09 315.60 133.18 312.08 129.36
  A 0.35 0.35 0.0 0 1 312.23 128.79
  Q 312.53 128.70 312.82 128.82
  Q 319.63 131.67 321.20 139.20
  C 322.28 144.41 327.51 143.85 331.11 141.89
  C 340.46 136.80 342.68 126.19 338.57 116.92
  Q 337.50 114.51 336.49 112.11
  Q 336.02 110.98 336.87 111.85
  C 342.89 117.98 345.59 126.79 342.93 135.07
  C 340.09 143.86 332.59 148.37 324.02 150.75
  C 317.73 152.50 306.94 156.50 306.19 164.49
  Q 305.77 169.05 307.62 172.19
  Q 310.18 176.53 313.78 174.18
  C 314.81 173.51 315.49 172.30 316.55 171.77
  Q 318.98 170.55 317.58 172.88
  C 315.46 176.41 314.15 181.13 317.93 184.00
  C 323.00 187.86 326.83 181.55 327.25 177.16
  C 327.83 170.90 328.59 165.38 332.72 160.21
  Q 334.18 158.38 333.40 160.58
  C 331.08 167.13 331.56 173.64 330.55 180.16
  C 329.43 187.39 325.73 191.47 319.58 194.61
  C 313.37 197.77 308.68 202.95 302.40 206.02
  Q 299.12 207.62 296.16 209.27
  C 290.26 212.54 289.16 217.00 288.46 223.22
  Q 287.58 231.10 284.78 237.46
  C 282.01 243.76 278.05 250.28 275.02 256.84
  Q 266.10 276.18 262.39 298.32
  Q 261.39 304.28 261.15 310.58
  C 260.73 322.06 269.96 321.94 275.95 315.10
  Q 284.35 305.51 287.27 293.51
  C 288.89 286.89 289.83 279.96 289.66 272.99
  Q 289.47 264.89 289.56 256.08
  Q 289.82 229.41 310.42 214.18
  C 315.24 210.61 320.99 208.11 326.53 205.56
  C 336.32 201.05 343.01 192.06 342.13 180.85
  Q 341.88 177.75 341.71 174.36
  C 341.27 165.59 346.12 160.57 353.10 156.42
  C 361.67 151.33 364.34 143.07 360.90 133.08
  Q 360.16 130.92 361.62 132.68
  Q 365.80 137.67 366.06 144.14
  C 366.37 151.99 362.25 157.04 355.68 160.40
  C 349.41 163.61 345.88 168.90 346.73 176.31
  Q 347.13 179.78 347.77 183.17
  C 349.22 190.94 347.45 198.85 343.42 205.69
  C 341.40 209.11 339.33 215.00 343.94 217.38
  C 352.34 221.72 360.38 213.00 362.47 205.53
  Q 363.86 200.58 365.04 194.80
  C 366.92 185.57 374.11 176.23 384.03 174.44
  Q 386.51 173.99 388.64 173.26
  Q 393.26 171.68 389.38 174.64
  C 385.96 177.24 381.51 178.90 378.33 181.61
  C 370.50 188.26 369.43 197.04 368.21 206.75
  C 367.39 213.24 364.23 218.86 358.23 222.28
  C 350.35 226.77 342.08 225.32 333.56 223.99
  C 322.37 222.25 312.50 225.50 306.59 234.55
  C 304.35 237.97 298.27 248.21 303.02 251.62
  C 309.75 256.46 320.63 252.29 326.85 248.12
  C 335.98 242.00 344.69 232.38 356.93 235.42
  C 360.77 236.37 364.63 237.84 368.52 237.80
  C 381.03 237.66 383.90 222.02 378.72 212.68
  Q 376.51 208.71 375.91 204.17
  Q 375.88 203.94 376.11 203.87
  L 376.36 203.81
  Q 376.41 203.79 376.43 203.85
  Q 377.30 206.29 378.70 208.74
  C 380.61 212.08 385.09 213.45 386.84 209.02
  C 387.90 206.34 388.66 203.66 389.49 200.96
  Q 390.84 196.55 389.25 192.76
  Q 387.70 189.07 390.26 192.15
  Q 391.55 193.70 392.59 195.66
  Q 393.10 196.61 394.28 196.77
  C 400.11 197.53 404.04 194.98 405.28 189.02
  Q 405.59 187.55 405.80 189.03
  C 406.79 196.03 402.12 197.71 396.79 199.54
  C 392.82 200.90 390.18 204.50 389.87 208.57
  C 389.33 215.62 388.53 222.56 386.46 229.49
  C 383.58 239.16 376.32 244.53 365.69 242.48
  Q 360.35 241.45 355.47 241.25
  C 347.38 240.91 341.97 245.41 337.08 251.32
  C 333.52 255.61 328.54 258.48 323.25 259.80
  C 311.61 262.70 300.90 270.45 298.96 283.05
  C 298.57 285.56 299.30 289.62 302.33 290.30
  C 307.75 291.50 315.87 287.48 320.11 284.35
  C 325.84 280.11 331.15 273.25 338.46 272.04
  C 343.92 271.14 349.90 272.47 355.51 271.65
  Q 365.26 270.24 370.48 259.68
  C 373.56 253.45 377.63 249.34 385.03 248.64
  Q 392.13 247.97 398.48 252.85
  Q 398.63 252.97 398.64 253.16
  Q 398.65 253.33 398.56 253.45
  Q 398.52 253.49 398.47 253.47
  C 390.87 250.03 382.83 249.54 377.61 256.58
  C 374.55 260.71 375.75 266.19 379.32 269.73
  Q 382.28 272.68 386.15 274.06
  C 397.00 277.94 400.62 265.68 407.63 260.89
  Q 413.03 257.21 419.65 258.41
  Q 419.81 258.44 419.81 258.61
  L 419.81 258.86
  Q 419.81 258.97 419.70 258.98
  C 410.69 259.51 406.60 265.39 402.61 272.64
  C 397.22 282.43 388.19 283.47 379.92 276.24
  Q 377.17 273.84 374.48 271.30
  C 369.16 266.28 365.45 273.13 361.38 275.34
  Q 356.07 278.24 351.68 278.22
  Q 345.42 278.20 340.69 278.39
  C 336.45 278.57 332.88 281.01 334.36 285.72
  Q 336.20 291.61 342.69 296.71
  Q 352.79 304.64 362.77 296.34
  C 370.70 289.75 378.96 283.82 388.59 291.42
  C 397.02 298.06 402.55 309.33 415.68 305.01
  Q 417.87 304.28 416.15 305.82
  C 409.43 311.85 400.79 309.81 394.48 304.42
  Q 391.23 301.65 387.68 298.99
  C 376.46 290.59 369.31 298.38 360.57 304.83
  C 349.89 312.72 341.92 305.48 332.56 300.67
  C 322.37 295.43 308.38 298.39 301.75 308.21
  C 299.16 312.04 300.17 317.29 305.96 316.59
  C 312.87 315.75 321.27 312.36 328.08 315.43
  Q 331.12 316.80 334.66 319.83
  C 341.19 325.41 345.68 320.23 350.63 316.38
  C 360.39 308.79 372.12 310.59 379.93 319.85
  C 385.43 326.38 388.27 332.40 398.21 332.30
  Q 400.65 332.28 398.35 333.08
  Q 389.63 336.12 382.69 330.21
  C 378.73 326.84 375.74 321.43 370.87 319.35
  C 364.22 316.51 358.18 318.89 352.23 322.88
  C 348.98 325.06 343.91 326.65 341.67 329.43
  Q 338.82 332.97 341.55 337.35
  Q 345.13 343.06 352.20 344.47
  Q 359.09 345.85 366.26 345.63
  Q 368.68 345.56 366.37 346.31
  Q 358.86 348.76 351.29 348.78
  C 342.20 348.79 336.13 344.33 332.33 336.61
  C 328.45 328.72 322.56 323.84 313.00 325.38
  C 299.49 327.56 288.04 337.10 287.33 351.31
  C 286.62 365.36 298.05 373.66 310.83 375.46
  Q 315.10 376.06 320.18 376.42
  C 321.54 376.51 323.72 377.34 325.01 378.10
  C 334.59 383.71 343.99 388.12 354.56 390.43
  Q 360.40 391.71 367.06 393.03
  Q 367.12 393.05 367.12 393.11
  L 367.09 393.40
  Q 367.05 393.76 366.69 393.75
  Q 357.39 393.67 349.77 393.79
  C 344.71 393.87 340.46 393.19 335.69 391.11
  Q 328.80 388.12 322.12 385.60
  Q 321.26 385.28 321.92 385.92
  Z"
/>
<circle fill="#faf1f5" cx="291.30" cy="99.62" r="3.04"/>
<circle fill="#faf1f5" cx="234.66" cy="105.25" r="4.37"/>
<ellipse fill="#faf1f5" cx="0.00" cy="0.00" transform="translate(185.84,114.96) rotate(-19.5)" rx="3.21" ry="3.09"/>
<circle fill="#faf1f5" cx="325.57" cy="123.25" r="2.98"/>
<circle fill="#faf1f5" cx="168.00" cy="153.58" r="4.27"/>
<circle fill="#faf1f5" cx="124.59" cy="156.62" r="4.32"/>
<circle fill="#faf1f5" cx="381.01" cy="159.81" r="4.33"/>
<circle fill="#faf1f5" cx="360.59" cy="170.85" r="3.19"/>
<circle fill="#faf1f5" cx="293.10" cy="184.31" r="3.33"/>
<ellipse fill="#faf1f5" cx="0.00" cy="0.00" transform="translate(150.28,184.92) rotate(119.5)" rx="3.13" ry="2.96"/>
<circle fill="#faf1f5" cx="110.60" cy="196.08" r="3.12"/>
<circle fill="#faf1f5" cx="407.33" cy="216.62" r="3.54"/>
<circle fill="#faf1f5" cx="155.97" cy="219.10" r="3.11"/>
<circle fill="#faf1f5" cx="90.20" cy="237.10" r="4.38"/>
<circle fill="#faf1f5" cx="407.02" cy="237.11" r="4.39"/>
<circle fill="#faf1f5" cx="87.56" cy="287.89" r="3.48"/>
<circle fill="#faf1f5" cx="413.89" cy="288.04" r="3.39"/>
<circle fill="#faf1f5" cx="109.55" cy="318.52" r="3.07"/>
<circle fill="#faf1f5" cx="137.80" cy="361.82" r="3.59"/>
<circle fill="#faf1f5" cx="363.03" cy="361.82" r="3.47"/>
</svg>
